<svg t="1682378542042" class="icon" viewBox="0 0 1024 1024" version="1.1" xmlns="http://www.w3.org/2000/svg" p-id="4001" width="200" height="200"><path d="M802.19 399.41c-9.12-10-22.1-15.74-35.62-15.74h-0.43c-7.42-55.41-40.16-102.91-86.17-130.43l49.29-98.57c5.92-11.84 1.12-26.24-10.72-32.16-11.84-5.92-26.24-1.12-32.16 10.72l-50.55 101.11c-15.25-4.22-31.3-6.48-47.87-6.48-0.84 0-1.67 0.02-2.51 0.03-22.26-43.68-67.35-71.95-117.36-71.95-71.12 0-129.26 56.61-131.76 127.13-36.4 21.07-62.76 57.64-70 100.61h-0.84c-13.52 0-26.5 5.74-35.62 15.74-8.98 9.85-13.43 23.07-12.21 36.26 6.87 74.02 40.95 142.55 95.97 192.96 49.45 45.31 112.07 72.43 178.43 77.71V815.2h-59.93c-13.24 0-23.97 10.73-23.97 23.97 0 13.24 10.73 23.97 23.97 23.97h167.81c13.24 0 23.97-10.73 23.97-23.97 0-13.24-10.73-23.97-23.97-23.97H540V706.34c66.36-5.28 128.98-32.4 178.43-77.71 55.01-50.41 89.1-118.94 95.97-192.96 1.22-13.19-3.23-26.4-12.21-36.26z m-84.57-15.74H458.39c0.12-0.7 0.25-1.38 0.38-2.02l-0.05-0.01c0.17-0.84 0.35-1.67 0.54-2.51l0.11 0.02c0.33-1.5 0.67-2.98 1.01-4.4 0.34-1.38 0.69-2.75 1.07-4.05h-0.01c0.35-1.21 0.72-2.41 1.11-3.6l0.11 0.03 0.5-1.54c0.28-0.86 0.55-1.7 0.82-2.51 0.21-0.63 0.42-1.22 0.62-1.8 5.49-14.52 13.56-28.1 23.96-40.05l0.02-0.02c21.73-24.96 51.65-40.76 84.25-44.48l4.39-0.5c3.54-0.29 7.12-0.44 10.74-0.44 64.51 0.01 118.35 46.58 129.66 107.88zM387.23 265.33c9.84-35.4 42.36-61.45 80.85-61.45 26.28 0 50.42 12.27 66.02 32.21-25.77 8.11-49.05 21.88-68.39 39.84-0.04-0.02-0.07-0.03-0.11-0.05-0.21-0.09-0.43-0.18-0.64-0.27-1.15-0.5-2.31-0.98-3.48-1.45-0.43-0.17-0.85-0.34-1.28-0.5-1.02-0.4-2.05-0.79-3.08-1.16-0.39-0.14-0.77-0.29-1.16-0.42-1.39-0.49-2.79-0.97-4.19-1.42-0.17-0.05-0.34-0.1-0.5-0.16-1.24-0.39-2.49-0.77-3.75-1.13l-1.29-0.36c-1.06-0.29-2.12-0.57-3.19-0.84-0.4-0.1-0.8-0.21-1.21-0.3-1.43-0.35-2.87-0.68-4.32-0.98-0.12-0.02-0.23-0.04-0.35-0.07-1.33-0.28-2.66-0.53-4-0.77-0.44-0.08-0.87-0.15-1.31-0.22-1.08-0.18-2.16-0.35-3.24-0.51-0.42-0.06-0.85-0.13-1.27-0.18-1.46-0.2-2.93-0.38-4.4-0.53-0.07-0.01-0.14-0.01-0.21-0.02-1.4-0.14-2.8-0.26-4.21-0.37l-1.33-0.09c-1.09-0.07-2.17-0.13-3.26-0.17-0.44-0.02-0.88-0.04-1.33-0.05-1.47-0.05-2.95-0.08-4.43-0.08h-0.01c-1.57 0-3.13 0.03-4.69 0.08-0.44 0.01-0.88 0.03-1.32 0.05-1.26 0.05-2.52 0.12-3.77 0.2l-1 0.06c-1.5 0.11-3 0.25-4.48 0.41l-1.34 0.15c-1.16 0.13-2.31 0.28-3.46 0.44-0.3 0.04-0.58 0.06-0.87 0.11z m-15.7 53.71c0.75-0.31 1.5-0.61 2.26-0.9 0.52-0.2 1.05-0.4 1.58-0.59 0.51-0.19 1.03-0.38 1.55-0.55 0.88-0.31 1.77-0.6 2.67-0.88 0.43-0.14 0.87-0.26 1.3-0.39 0.82-0.24 1.64-0.48 2.47-0.7 0.31-0.08 0.62-0.17 0.93-0.25 1.02-0.26 2.05-0.51 3.08-0.74 0.28-0.06 0.56-0.13 0.84-0.19 1.12-0.24 2.25-0.46 3.39-0.66 0.19-0.03 0.39-0.06 0.58-0.1 1.19-0.2 2.38-0.38 3.58-0.54 0.03 0 0.06-0.01 0.09-0.01 1.23-0.16 2.46-0.29 3.7-0.4 0.2-0.02 0.4-0.04 0.6-0.05 1.2-0.1 2.41-0.18 3.62-0.23 0.2-0.01 0.41-0.02 0.61-0.02a89.16 89.16 0 0 1 7.05-0.02c0.37 0.01 0.74 0.04 1.11 0.06 0.72 0.03 1.43 0.06 2.15 0.11 0.45 0.03 0.9 0.08 1.35 0.12 0.63 0.05 1.27 0.1 1.9 0.17 0.48 0.05 0.96 0.12 1.44 0.17 0.6 0.07 1.2 0.14 1.8 0.22 0.49 0.07 0.99 0.15 1.48 0.23 0.58 0.09 1.16 0.17 1.74 0.27 0.49 0.09 0.99 0.19 1.48 0.28 0.57 0.11 1.15 0.21 1.72 0.33 0.49 0.1 0.98 0.22 1.47 0.33 0.57 0.13 1.14 0.25 1.7 0.39 0.48 0.12 0.97 0.25 1.45 0.38 0.52 0.14 1.03 0.27 1.55 0.41-12.33 20.51-20.68 43.66-23.99 68.38H315.3c7.57-29.3 28.68-53.2 56.23-64.63z m144.5 340.32c-130.68 0-238.34-97.87-250.59-227.74H766.64c-12.27 129.87-119.93 227.74-250.61 227.74z" fill="#6D6D6D" p-id="4002"></path></svg>