<svg t="1696752569315" class="icon" viewBox="0 0 1024 1024" version="1.1" xmlns="http://www.w3.org/2000/svg" p-id="10450" width="200" height="200"><path d="M838.063158 35.031579H199.410526c-35.031579 0-61.978947 26.947368-61.978947 61.978947v829.978948c0 35.031579 26.947368 61.978947 61.978947 61.978947H838.063158c26.947368 0 48.505263-21.557895 48.505263-48.505263V83.536842c0-26.947368-21.557895-48.505263-48.505263-48.505263zM175.157895 926.989474V97.010526c0-13.473684 10.778947-24.252632 24.252631-24.252631H269.473684c0 2.694737-2.694737 8.084211-2.694737 10.778947v854.231579c0 5.389474 0 8.084211 2.694737 10.778947H199.410526c-13.473684 2.694737-24.252632-8.084211-24.252631-21.557894z m673.68421 13.473684c0 5.389474-5.389474 10.778947-10.778947 10.778947H317.978947c-5.389474 0-10.778947-5.389474-10.778947-10.778947V83.536842c0-5.389474 5.389474-10.778947 10.778947-10.778947h520.084211c5.389474 0 10.778947 5.389474 10.778947 10.778947v856.926316z" fill="#101010" p-id="10451"></path><path d="M498.526316 218.273684h102.4c10.778947 0 18.863158-8.084211 18.863158-18.863158s-8.084211-18.863158-18.863158-18.863158h-102.4c-10.778947 0-18.863158 8.084211-18.863158 18.863158s8.084211 18.863158 18.863158 18.863158zM600.926316 805.726316h-102.4c-10.778947 0-18.863158 8.084211-18.863158 18.863158s8.084211 18.863158 18.863158 18.863158h102.4c10.778947 0 18.863158-8.084211 18.863158-18.863158s-10.778947-18.863158-18.863158-18.863158zM759.915789 479.663158c-10.778947-10.778947-45.810526-45.810526-59.28421-72.757895-21.557895-43.115789-40.421053-94.315789-40.421053-94.315789s0-2.694737-2.694737-2.694737c0 0 0-2.694737-2.694736-2.694737l-2.694737-2.694737s-2.694737 0-2.694737-2.694737H646.736842h-202.105263c-10.778947 0-18.863158 8.084211-18.863158 18.863158v385.347369c0 10.778947 8.084211 18.863158 18.863158 18.863158h226.357895c10.778947 0 18.863158-8.084211 18.863158-18.863158v-67.368421c32.336842-24.252632 51.2-40.421053 80.842105-72.757895 8.084211-8.084211 18.863158-21.557895 18.863158-40.421053-2.694737-18.863158-18.863158-35.031579-29.642106-45.810526z m-296.421052-140.126316h21.557895c8.084211 18.863158 21.557895 53.894737 37.726315 86.231579 18.863158 35.031579 64.673684 78.147368 64.673685 80.842105 13.473684 10.778947 16.168421 18.863158 16.168421 18.863158 0 2.694737-2.694737 8.084211-8.084211 13.473684-26.947368 29.642105-45.810526 43.115789-80.842105 72.757895l-2.694737 2.694737s0 2.694737-2.694737 2.694737c-2.694737 2.694737-2.694737 5.389474-2.694737 8.08421 0 10.778947 8.084211 18.863158 18.863158 18.863158h126.652632v37.726316h-188.631579V339.536842z m199.410526 269.473684h-83.536842c16.168421-13.473684 26.947368-24.252632 45.810526-43.115789 8.084211-8.084211 18.863158-21.557895 18.863158-40.421053s-16.168421-35.031579-26.947368-45.810526c-10.778947-10.778947-45.810526-45.810526-59.284211-72.757895-13.473684-24.252632-24.252632-51.2-29.642105-70.063158h105.094737c8.084211 18.863158 21.557895 53.894737 37.726316 86.231579 18.863158 35.031579 64.673684 78.147368 64.673684 80.842105 13.473684 10.778947 16.168421 18.863158 16.168421 18.863158 0 2.694737-2.694737 8.084211-8.084211 13.473685-29.642105 35.031579-48.505263 48.505263-80.842105 72.757894z" fill="#101010" p-id="10452"></path></svg>